{
    "asset" : {
        "copyright" : "WowGGGearing\\napik\\ttenan",
        "generator" : "Khronos glTF Blender I/O v3.4.50",
        "version" : "2.0"
    },
    "scene" : 0,
    "scenes" : [
        {
            "name" : "sceneutama",
            "nodes" : [
                4,
                7
            ]
        }
    ],
    "nodes" : [
        {
            "name" : "lipat0"
        },
        {
            "name" : "lipat1"
        },
        {
            "name" : "lipat2"
        },
        {
            "extras" : {
                "geomat" : [
                    [
                        1.0,
                        0.0,
                        0.0,
                        0.0,
                        1.0,
                        0.0,
                        0.0,
                        0.0,
                        1.0
                    ]
                ]
            },
            "mesh" : 0,
            "name" : "bendera",
            "skin" : 0
        },
        {
            "children" : [
                3,
                0,
                1,
                2
            ],
            "name" : "rangkabendera"
        },
        {
            "name" : "b0"
        },
        {
            "extras" : {
                "geomat" : [
                    [
                        3.0,
                        0.0,
                        0.0,
                        0.0,
                        3.0,
                        0.0,
                        0.0,
                        0.0,
                        1.0
                    ],
                    [
                        1.0,
                        0.0,
                        0.0,
                        0.0,
                        1.0,
                        0.0,
                        0.0,
                        -8.0,
                        1.0
                    ],
                    [
                        0.0,
                        -1.399999976158142,
                        0.0,
                        1.0,
                        0.0,
                        0.0,
                        0.0,
                        0.0,
                        1.0
                    ]
                ]
            },
            "mesh" : 1,
            "name" : "tiang",
            "skin" : 1
        },
        {
            "children" : [
                6,
                5
            ],
            "name" : "rangkatiang"
        }
    ],
    "materials" : [
        {
            "extras" : {
                "shadernode" : {
                    "color" : {
                        "Group.009" : [
                            0.30000001192092896,
                            0.30000001192092896,
                            0.0,
                            1.0
                        ],
                        "Group.006" : [
                            1.0,
                            1.0,
                            0.0,
                            1.0
                        ],
                        "Group.005" : [
                            0.0,
                            0.30000001192092896,
                            0.0,
                            1.0
                        ],
                        "Group.002" : [
                            0.0,
                            1.0,
                            0.0,
                            1.0
                        ],
                        "Group.001" : [
                            1.0,
                            0.0,
                            0.0,
                            1.0
                        ],
                        "Group.004" : [
                            1.0,
                            1.0,
                            1.0,
                            1.0
                        ],
                        "Group.003" : [
                            0.0,
                            0.4000000059604645,
                            0.0,
                            1.0
                        ],
                        "Group.008" : [
                            0.0,
                            0.0,
                            0.0,
                            1.0
                        ]
                    },
                    "matrix" : {
                        "matku0" : [
                            0.921061098575592,
                            0.3894181549549103,
                            0.0,
                            -0.3894181549549103,
                            0.921061098575592,
                            0.0,
                            0.0,
                            5.0,
                            1.0
                        ],
                        "matku1" : [
                            0.921061098575592,
                            0.3894181549549103,
                            0.0,
                            -0.3894181549549103,
                            0.921061098575592,
                            0.0,
                            0.0,
                            -5.0,
                            1.0
                        ],
                        "matku2" : [
                            0.5841273665428162,
                            -0.9210609197616577,
                            0.0,
                            1.3815914392471313,
                            0.38941842317581177,
                            0.0,
                            0.0,
                            0.0,
                            1.0
                        ],
                        "matku3" : [
                            0.05000000074505806,
                            0.0,
                            0.0,
                            0.0,
                            0.05000000074505806,
                            0.0,
                            0.0,
                            0.0,
                            1.0
                        ],
                        "matku4" : [
                            1.0,
                            0.0,
                            0.10000000149011612,
                            0.0,
                            1.0,
                            0.0,
                            0.0,
                            0.0,
                            1.0
                        ]
                    },
                    "mathcurve" : {
                        "grupkuuuuu" : {
                            "A" : "Group.007",
                            "B" : "Group.003",
                            "matrix" : "matku1",
                            "curveid" : 0
                        },
                        "Group.007" : {
                            "A" : "Group.008",
                            "B" : "Group.004",
                            "matrix" : "matku0",
                            "curveid" : 0
                        },
                        "grupakhir" : {
                            "A" : "grupkuuuuu",
                            "B" : "Group.001",
                            "matrix" : "matku2",
                            "curveid" : 1
                        },
                        "grupakhir.001" : {
                            "A" : "grupakhir.003",
                            "B" : "grupakhir.002",
                            "matrix" : "matku3",
                            "curveid" : 5
                        },
                        "grupakhir.003" : {
                            "A" : "Group.006",
                            "B" : "Group.009",
                            "matrix" : "matku4",
                            "curveid" : 2
                        },
                        "grupakhir.002" : {
                            "A" : "Group.002",
                            "B" : "Group.005",
                            "matrix" : "matku4",
                            "curveid" : 4
                        }
                    },
                    "mathcurveoutput" : [
                        "grupakhir",
                        "grupakhir.001"
                    ]
                }
            },
            "name" : "matepalestina",
            "pbrMetallicRoughness" : {}
        }
    ],
    "meshes" : [
        {
            "name" : "meshbendera",
            "primitives" : [
                {
                    "attributes" : {
                        "POSITION" : 0,
                        "TEXCOORD_0" : 1,
                        "TEXCOORD_1" : 2,
                        "NORMAL" : 3,
                        "JOINTS_0" : 4,
                        "WEIGHTS_0" : 5
                    },
                    "indices" : 6,
                    "material" : 0
                }
            ]
        },
        {
            "name" : "meshtiang",
            "primitives" : [
                {
                    "attributes" : {
                        "POSITION" : 8,
                        "TEXCOORD_0" : 9,
                        "TEXCOORD_1" : 10,
                        "NORMAL" : 11,
                        "JOINTS_0" : 12,
                        "WEIGHTS_0" : 13
                    },
                    "indices" : 14,
                    "material" : 0
                }
            ]
        }
    ],
    "skins" : [
        {
            "inverseBindMatrices" : 7,
            "joints" : [
                0,
                1,
                2
            ],
            "name" : "rangkabendera"
        },
        {
            "inverseBindMatrices" : 15,
            "joints" : [
                5
            ],
            "name" : "rangkatiang"
        }
    ],
    "accessors" : [
        {
            "bufferView" : 0,
            "componentType" : 5126,
            "count" : 91,
            "max" : [
                3.3499999046325684,
                1,
                0
            ],
            "min" : [
                0.15000009536743164,
                -1,
                0
            ],
            "type" : "VEC3"
        },
        {
            "bufferView" : 1,
            "componentType" : 5126,
            "count" : 91,
            "type" : "VEC2"
        },
        {
            "bufferView" : 2,
            "componentType" : 5126,
            "count" : 91,
            "type" : "VEC2"
        },
        {
            "bufferView" : 3,
            "componentType" : 5126,
            "count" : 91,
            "type" : "VEC3"
        },
        {
            "bufferView" : 4,
            "componentType" : 5121,
            "count" : 91,
            "type" : "VEC4"
        },
        {
            "bufferView" : 5,
            "componentType" : 5126,
            "count" : 91,
            "type" : "VEC4"
        },
        {
            "bufferView" : 6,
            "componentType" : 5123,
            "count" : 432,
            "type" : "SCALAR"
        },
        {
            "bufferView" : 7,
            "componentType" : 5126,
            "count" : 3,
            "type" : "MAT4"
        },
        {
            "bufferView" : 8,
            "componentType" : 5126,
            "count" : 9,
            "max" : [
                3,
                0,
                3
            ],
            "min" : [
                -3,
                0,
                -3
            ],
            "type" : "VEC3"
        },
        {
            "bufferView" : 9,
            "componentType" : 5126,
            "count" : 9,
            "type" : "VEC2"
        },
        {
            "bufferView" : 10,
            "componentType" : 5126,
            "count" : 9,
            "type" : "VEC2"
        },
        {
            "bufferView" : 11,
            "componentType" : 5126,
            "count" : 9,
            "type" : "VEC3"
        },
        {
            "bufferView" : 12,
            "componentType" : 5121,
            "count" : 9,
            "type" : "VEC4"
        },
        {
            "bufferView" : 13,
            "componentType" : 5126,
            "count" : 9,
            "type" : "VEC4"
        },
        {
            "bufferView" : 14,
            "componentType" : 5123,
            "count" : 24,
            "type" : "SCALAR"
        },
        {
            "bufferView" : 15,
            "componentType" : 5126,
            "count" : 1,
            "type" : "MAT4"
        }
    ],
    "bufferViews" : [
        {
            "buffer" : 0,
            "byteLength" : 1092,
            "byteOffset" : 0,
            "target" : 34962
        },
        {
            "buffer" : 0,
            "byteLength" : 728,
            "byteOffset" : 1092,
            "target" : 34962
        },
        {
            "buffer" : 0,
            "byteLength" : 728,
            "byteOffset" : 1820,
            "target" : 34962
        },
        {
            "buffer" : 0,
            "byteLength" : 1092,
            "byteOffset" : 2548,
            "target" : 34962
        },
        {
            "buffer" : 0,
            "byteLength" : 364,
            "byteOffset" : 3640,
            "target" : 34962
        },
        {
            "buffer" : 0,
            "byteLength" : 1456,
            "byteOffset" : 4004,
            "target" : 34962
        },
        {
            "buffer" : 0,
            "byteLength" : 864,
            "byteOffset" : 5460,
            "target" : 34963
        },
        {
            "buffer" : 0,
            "byteLength" : 192,
            "byteOffset" : 6324
        },
        {
            "buffer" : 0,
            "byteLength" : 108,
            "byteOffset" : 6516,
            "target" : 34962
        },
        {
            "buffer" : 0,
            "byteLength" : 72,
            "byteOffset" : 6624,
            "target" : 34962
        },
        {
            "buffer" : 0,
            "byteLength" : 72,
            "byteOffset" : 6696,
            "target" : 34962
        },
        {
            "buffer" : 0,
            "byteLength" : 108,
            "byteOffset" : 6768,
            "target" : 34962
        },
        {
            "buffer" : 0,
            "byteLength" : 36,
            "byteOffset" : 6876,
            "target" : 34962
        },
        {
            "buffer" : 0,
            "byteLength" : 144,
            "byteOffset" : 6912,
            "target" : 34962
        },
        {
            "buffer" : 0,
            "byteLength" : 48,
            "byteOffset" : 7056,
            "target" : 34963
        },
        {
            "buffer" : 0,
            "byteLength" : 64,
            "byteOffset" : 7104
        }
    ],
    "buffers" : [
        {
            "byteLength" : 7168,
            "uri" : "PolyLandhep-bidang.bin"
        }
    ]
}
