{
	"asset":{
		"copyright":"wowgggearing",
		"generator":"Khronos glTF Blender I/O v4.3.47",
		"version":"2.0"
	},
	"extensionsUsed":[
		"KHR_materials_unlit"
	],
	"scene":0,
	"scenes":[
		{
			"name":"Scene",
			"nodes":[
				16
			]
		}
	],
	"nodes":[
		{
			"name":"b_kepala",
			"rotation":[
				5.366070611402714e-15,
				-1.7763568394002505e-15,
				1.3409505739940924e-23,
				1
			],
			"translation":[
				2.8618717486875616e-22,
				1.499999761581421,
				-1.7763568394002505e-14
			]
		},
		{
			"name":"b_tanganbawah L",
			"rotation":[
				-3.7899616811880334e-23,
				2.65971227264572e-08,
				1.77635620412554e-15,
				1
			],
			"translation":[
				-2.1316282072803006e-14,
				1.0000001192092896,
				2.384185791015625e-07
			]
		},
		{
			"children":[
				1
			],
			"name":"b_tanganatas L",
			"rotation":[
				-0.4999999701976776,
				-0.5,
				-0.5000000596046448,
				0.5
			],
			"translation":[
				0.4999999701976776,
				1.299999713897705,
				1.7114247796712334e-08
			]
		},
		{
			"name":"b_tanganbawah R",
			"rotation":[
				8.429367426288081e-08,
				-0.7071066498756409,
				-8.42936600520261e-08,
				0.70710688829422
			],
			"translation":[
				-2.4836950801142982e-14,
				1.0000001192092896,
				1.1920922560193503e-07
			]
		},
		{
			"children":[
				3
			],
			"name":"b_tanganatas R",
			"rotation":[
				0.49999991059303284,
				-0.5000000596046448,
				0.5,
				0.5000000596046448
			],
			"translation":[
				-0.4999999701976776,
				1.299999713897705,
				-1.7114283323849122e-08
			]
		},
		{
			"name":"b_kakibawah L",
			"rotation":[
				9.961981817241394e-08,
				3.857163122233942e-08,
				0.7071067094802856,
				0.7071068286895752
			],
			"translation":[
				1.0658141036401503e-14,
				1.0999997854232788,
				-3.083103194967407e-08
			]
		},
		{
			"children":[
				5
			],
			"name":"b_kakiatas L",
			"rotation":[
				5.7801660346967765e-08,
				-8.078315261172975e-08,
				-1.0430815677864302e-07,
				1
			],
			"translation":[
				2.4868995751603507e-14,
				0.9999996423721313,
				-3.967674544469446e-08
			]
		},
		{
			"children":[
				6
			],
			"name":"b_rok L",
			"rotation":[
				0.7071068286895752,
				-8.42937097900176e-08,
				-0.7071067094802856,
				8.940699558479537e-08
			],
			"scale":[
				1,
				0.9999999403953552,
				1
			],
			"translation":[
				0.30000001192092896,
				-0.13449311256408691,
				1.0268559336168437e-08
			]
		},
		{
			"name":"b_kakibawah R",
			"rotation":[
				9.961981817241394e-08,
				3.857163122233942e-08,
				0.7071067094802856,
				0.7071068286895752
			],
			"translation":[
				6.572520305780927e-14,
				1.0999999046325684,
				-3.083103194967407e-08
			]
		},
		{
			"children":[
				8
			],
			"name":"b_kakiatas R",
			"rotation":[
				5.7801660346967765e-08,
				-8.078315261172975e-08,
				-1.0430814967321567e-07,
				1
			],
			"translation":[
				7.460698725481052e-14,
				0.9999996423721313,
				-3.967674544469446e-08
			]
		},
		{
			"children":[
				9
			],
			"name":"b_rok R",
			"rotation":[
				0.7071068286895752,
				-8.42937097900176e-08,
				-0.7071067094802856,
				8.940699558479537e-08
			],
			"scale":[
				1,
				0.9999999403953552,
				1
			],
			"translation":[
				-0.30000001192092896,
				-0.13449311256408691,
				-1.0268566441595794e-08
			]
		},
		{
			"name":"b_topi",
			"rotation":[
				0,
				-1.7114270889351246e-08,
				0,
				1
			],
			"translation":[
				-1.3691415290395526e-07,
				-2.499999523162842,
				3.999999761581421
			]
		},
		{
			"children":[
				0,
				2,
				4,
				7,
				10,
				11
			],
			"name":"b_badan",
			"rotation":[
				-8.557135444675623e-09,
				1.7114270889351246e-08,
				-2.928982756881431e-16,
				1
			],
			"translation":[
				0,
				2.5,
				0
			]
		},
		{
			"name":"b_bladecover",
			"rotation":[
				-6.883938397095335e-08,
				-6.883938397095335e-08,
				-0.7071067690849304,
				0.7071067690849304
			],
			"translation":[
				3,
				0,
				-4
			]
		},
		{
			"name":"b_blade",
			"rotation":[
				-6.883938397095335e-08,
				-6.883938397095335e-08,
				-0.7071067690849304,
				0.7071067690849304
			],
			"translation":[
				3,
				0,
				-2
			]
		},
		{
			"mesh":0,
			"name":"chara0 v",
			"skin":0
		},
		{
			"children":[
				15,
				12,
				13,
				14
			],
			"name":"chara0 arm"
		}
	],
	"animations":[
		{
			"channels":[
				{
					"sampler":0,
					"target":{
						"node":0,
						"path":"translation"
					}
				},
				{
					"sampler":1,
					"target":{
						"node":0,
						"path":"rotation"
					}
				},
				{
					"sampler":2,
					"target":{
						"node":0,
						"path":"scale"
					}
				},
				{
					"sampler":3,
					"target":{
						"node":1,
						"path":"translation"
					}
				},
				{
					"sampler":4,
					"target":{
						"node":1,
						"path":"rotation"
					}
				},
				{
					"sampler":5,
					"target":{
						"node":1,
						"path":"scale"
					}
				},
				{
					"sampler":6,
					"target":{
						"node":2,
						"path":"translation"
					}
				},
				{
					"sampler":7,
					"target":{
						"node":2,
						"path":"rotation"
					}
				},
				{
					"sampler":8,
					"target":{
						"node":2,
						"path":"scale"
					}
				},
				{
					"sampler":9,
					"target":{
						"node":3,
						"path":"translation"
					}
				},
				{
					"sampler":10,
					"target":{
						"node":3,
						"path":"rotation"
					}
				},
				{
					"sampler":11,
					"target":{
						"node":3,
						"path":"scale"
					}
				},
				{
					"sampler":12,
					"target":{
						"node":4,
						"path":"translation"
					}
				},
				{
					"sampler":13,
					"target":{
						"node":4,
						"path":"rotation"
					}
				},
				{
					"sampler":14,
					"target":{
						"node":4,
						"path":"scale"
					}
				},
				{
					"sampler":15,
					"target":{
						"node":5,
						"path":"translation"
					}
				},
				{
					"sampler":16,
					"target":{
						"node":5,
						"path":"rotation"
					}
				},
				{
					"sampler":17,
					"target":{
						"node":5,
						"path":"scale"
					}
				},
				{
					"sampler":18,
					"target":{
						"node":6,
						"path":"translation"
					}
				},
				{
					"sampler":19,
					"target":{
						"node":6,
						"path":"rotation"
					}
				},
				{
					"sampler":20,
					"target":{
						"node":6,
						"path":"scale"
					}
				},
				{
					"sampler":21,
					"target":{
						"node":7,
						"path":"translation"
					}
				},
				{
					"sampler":22,
					"target":{
						"node":7,
						"path":"rotation"
					}
				},
				{
					"sampler":23,
					"target":{
						"node":7,
						"path":"scale"
					}
				},
				{
					"sampler":24,
					"target":{
						"node":8,
						"path":"translation"
					}
				},
				{
					"sampler":25,
					"target":{
						"node":8,
						"path":"rotation"
					}
				},
				{
					"sampler":26,
					"target":{
						"node":8,
						"path":"scale"
					}
				},
				{
					"sampler":27,
					"target":{
						"node":9,
						"path":"translation"
					}
				},
				{
					"sampler":28,
					"target":{
						"node":9,
						"path":"rotation"
					}
				},
				{
					"sampler":29,
					"target":{
						"node":9,
						"path":"scale"
					}
				},
				{
					"sampler":30,
					"target":{
						"node":10,
						"path":"translation"
					}
				},
				{
					"sampler":31,
					"target":{
						"node":10,
						"path":"rotation"
					}
				},
				{
					"sampler":32,
					"target":{
						"node":10,
						"path":"scale"
					}
				},
				{
					"sampler":33,
					"target":{
						"node":11,
						"path":"translation"
					}
				},
				{
					"sampler":34,
					"target":{
						"node":11,
						"path":"rotation"
					}
				},
				{
					"sampler":35,
					"target":{
						"node":11,
						"path":"scale"
					}
				},
				{
					"sampler":36,
					"target":{
						"node":12,
						"path":"translation"
					}
				},
				{
					"sampler":37,
					"target":{
						"node":12,
						"path":"rotation"
					}
				},
				{
					"sampler":38,
					"target":{
						"node":12,
						"path":"scale"
					}
				},
				{
					"sampler":39,
					"target":{
						"node":13,
						"path":"translation"
					}
				},
				{
					"sampler":40,
					"target":{
						"node":13,
						"path":"rotation"
					}
				},
				{
					"sampler":41,
					"target":{
						"node":13,
						"path":"scale"
					}
				},
				{
					"sampler":42,
					"target":{
						"node":14,
						"path":"translation"
					}
				},
				{
					"sampler":43,
					"target":{
						"node":14,
						"path":"rotation"
					}
				},
				{
					"sampler":44,
					"target":{
						"node":14,
						"path":"scale"
					}
				}
			],
			"name":"chara0 ani",
			"samplers":[
				{
					"input":7,
					"interpolation":"LINEAR",
					"output":8
				},
				{
					"input":7,
					"interpolation":"LINEAR",
					"output":9
				},
				{
					"input":7,
					"interpolation":"LINEAR",
					"output":10
				},
				{
					"input":11,
					"interpolation":"LINEAR",
					"output":12
				},
				{
					"input":11,
					"interpolation":"LINEAR",
					"output":13
				},
				{
					"input":11,
					"interpolation":"LINEAR",
					"output":14
				},
				{
					"input":15,
					"interpolation":"LINEAR",
					"output":16
				},
				{
					"input":15,
					"interpolation":"LINEAR",
					"output":17
				},
				{
					"input":15,
					"interpolation":"LINEAR",
					"output":18
				},
				{
					"input":19,
					"interpolation":"LINEAR",
					"output":20
				},
				{
					"input":19,
					"interpolation":"LINEAR",
					"output":21
				},
				{
					"input":19,
					"interpolation":"LINEAR",
					"output":22
				},
				{
					"input":23,
					"interpolation":"LINEAR",
					"output":24
				},
				{
					"input":23,
					"interpolation":"LINEAR",
					"output":25
				},
				{
					"input":23,
					"interpolation":"LINEAR",
					"output":26
				},
				{
					"input":27,
					"interpolation":"LINEAR",
					"output":28
				},
				{
					"input":27,
					"interpolation":"LINEAR",
					"output":29
				},
				{
					"input":27,
					"interpolation":"LINEAR",
					"output":30
				},
				{
					"input":31,
					"interpolation":"LINEAR",
					"output":32
				},
				{
					"input":31,
					"interpolation":"LINEAR",
					"output":33
				},
				{
					"input":31,
					"interpolation":"LINEAR",
					"output":34
				},
				{
					"input":35,
					"interpolation":"LINEAR",
					"output":36
				},
				{
					"input":35,
					"interpolation":"LINEAR",
					"output":37
				},
				{
					"input":35,
					"interpolation":"LINEAR",
					"output":38
				},
				{
					"input":39,
					"interpolation":"LINEAR",
					"output":40
				},
				{
					"input":39,
					"interpolation":"LINEAR",
					"output":41
				},
				{
					"input":39,
					"interpolation":"LINEAR",
					"output":42
				},
				{
					"input":43,
					"interpolation":"LINEAR",
					"output":44
				},
				{
					"input":43,
					"interpolation":"LINEAR",
					"output":45
				},
				{
					"input":43,
					"interpolation":"LINEAR",
					"output":46
				},
				{
					"input":47,
					"interpolation":"LINEAR",
					"output":48
				},
				{
					"input":47,
					"interpolation":"LINEAR",
					"output":49
				},
				{
					"input":47,
					"interpolation":"LINEAR",
					"output":50
				},
				{
					"input":51,
					"interpolation":"LINEAR",
					"output":52
				},
				{
					"input":51,
					"interpolation":"LINEAR",
					"output":53
				},
				{
					"input":51,
					"interpolation":"LINEAR",
					"output":54
				},
				{
					"input":55,
					"interpolation":"LINEAR",
					"output":56
				},
				{
					"input":55,
					"interpolation":"LINEAR",
					"output":57
				},
				{
					"input":55,
					"interpolation":"LINEAR",
					"output":58
				},
				{
					"input":59,
					"interpolation":"LINEAR",
					"output":60
				},
				{
					"input":59,
					"interpolation":"LINEAR",
					"output":61
				},
				{
					"input":59,
					"interpolation":"LINEAR",
					"output":62
				},
				{
					"input":63,
					"interpolation":"LINEAR",
					"output":64
				},
				{
					"input":63,
					"interpolation":"LINEAR",
					"output":65
				},
				{
					"input":63,
					"interpolation":"LINEAR",
					"output":66
				}
			]
		}
	],
	"materials":[
		{
			"doubleSided":true,
			"extensions":{
				"KHR_materials_unlit":{}
			},
			"name":"Material.001",
			"pbrMetallicRoughness":{
				"baseColorTexture":{
					"index":0
				},
				"metallicFactor":0,
				"roughnessFactor":0.9
			}
		}
	],
	"meshes":[
		{
			"name":"chara0 v",
			"primitives":[
				{
					"attributes":{
						"POSITION":0,
						"NORMAL":1,
						"TEXCOORD_0":2,
						"JOINTS_0":3,
						"WEIGHTS_0":4
					},
					"indices":5,
					"material":0
				}
			]
		}
	],
	"textures":[
		{
			"sampler":0,
			"source":0
		}
	],
	"images":[
		{
			"mimeType":"image/png",
			"name":"texuntukgltfdoang",
			"uri":"texuntukgltfdoang.png"
		}
	],
	"skins":[
		{
			"inverseBindMatrices":6,
			"joints":[
				12,
				0,
				2,
				1,
				4,
				3,
				7,
				6,
				5,
				10,
				9,
				8,
				11,
				13,
				14
			],
			"name":"chara0 arm"
		}
	],
	"accessors":[
		{
			"bufferView":0,
			"componentType":5126,
			"count":3989,
			"max":[
				6.651304244995117,
				4.947317600250244,
				5.079999923706055
			],
			"min":[
				-2.6726529598236084,
				-0.2963738441467285,
				-4.065573215484619
			],
			"type":"VEC3"
		},
		{
			"bufferView":1,
			"componentType":5126,
			"count":3989,
			"type":"VEC3"
		},
		{
			"bufferView":2,
			"componentType":5126,
			"count":3989,
			"type":"VEC2"
		},
		{
			"bufferView":3,
			"componentType":5121,
			"count":3989,
			"type":"VEC4"
		},
		{
			"bufferView":4,
			"componentType":5126,
			"count":3989,
			"type":"VEC4"
		},
		{
			"bufferView":5,
			"componentType":5123,
			"count":6252,
			"type":"SCALAR"
		},
		{
			"bufferView":6,
			"componentType":5126,
			"count":15,
			"type":"MAT4"
		},
		{
			"bufferView":7,
			"componentType":5126,
			"count":58,
			"max":[
				60.62800089518229
			],
			"min":[
				-0.002999999870856603
			],
			"type":"SCALAR"
		},
		{
			"bufferView":8,
			"componentType":5126,
			"count":58,
			"type":"VEC3"
		},
		{
			"bufferView":9,
			"componentType":5126,
			"count":58,
			"type":"VEC4"
		},
		{
			"bufferView":10,
			"componentType":5126,
			"count":58,
			"type":"VEC3"
		},
		{
			"bufferView":11,
			"componentType":5126,
			"count":47,
			"max":[
				60.62800089518229
			],
			"min":[
				-0.002999999870856603
			],
			"type":"SCALAR"
		},
		{
			"bufferView":12,
			"componentType":5126,
			"count":47,
			"type":"VEC3"
		},
		{
			"bufferView":13,
			"componentType":5126,
			"count":47,
			"type":"VEC4"
		},
		{
			"bufferView":14,
			"componentType":5126,
			"count":47,
			"type":"VEC3"
		},
		{
			"bufferView":15,
			"componentType":5126,
			"count":48,
			"max":[
				60.62800089518229
			],
			"min":[
				-0.002999999870856603
			],
			"type":"SCALAR"
		},
		{
			"bufferView":16,
			"componentType":5126,
			"count":48,
			"type":"VEC3"
		},
		{
			"bufferView":17,
			"componentType":5126,
			"count":48,
			"type":"VEC4"
		},
		{
			"bufferView":18,
			"componentType":5126,
			"count":48,
			"type":"VEC3"
		},
		{
			"bufferView":19,
			"componentType":5126,
			"count":71,
			"max":[
				60.62800089518229
			],
			"min":[
				-0.002999999870856603
			],
			"type":"SCALAR"
		},
		{
			"bufferView":20,
			"componentType":5126,
			"count":71,
			"type":"VEC3"
		},
		{
			"bufferView":21,
			"componentType":5126,
			"count":71,
			"type":"VEC4"
		},
		{
			"bufferView":22,
			"componentType":5126,
			"count":71,
			"type":"VEC3"
		},
		{
			"bufferView":23,
			"componentType":5126,
			"count":85,
			"max":[
				60.62800089518229
			],
			"min":[
				-0.002999999870856603
			],
			"type":"SCALAR"
		},
		{
			"bufferView":24,
			"componentType":5126,
			"count":85,
			"type":"VEC3"
		},
		{
			"bufferView":25,
			"componentType":5126,
			"count":85,
			"type":"VEC4"
		},
		{
			"bufferView":26,
			"componentType":5126,
			"count":85,
			"type":"VEC3"
		},
		{
			"bufferView":27,
			"componentType":5126,
			"count":27,
			"max":[
				60.62800089518229
			],
			"min":[
				-0.002999999870856603
			],
			"type":"SCALAR"
		},
		{
			"bufferView":28,
			"componentType":5126,
			"count":27,
			"type":"VEC3"
		},
		{
			"bufferView":29,
			"componentType":5126,
			"count":27,
			"type":"VEC4"
		},
		{
			"bufferView":30,
			"componentType":5126,
			"count":27,
			"type":"VEC3"
		},
		{
			"bufferView":31,
			"componentType":5126,
			"count":42,
			"max":[
				60.62800089518229
			],
			"min":[
				-0.002999999870856603
			],
			"type":"SCALAR"
		},
		{
			"bufferView":32,
			"componentType":5126,
			"count":42,
			"type":"VEC3"
		},
		{
			"bufferView":33,
			"componentType":5126,
			"count":42,
			"type":"VEC4"
		},
		{
			"bufferView":34,
			"componentType":5126,
			"count":42,
			"type":"VEC3"
		},
		{
			"bufferView":35,
			"componentType":5126,
			"count":42,
			"max":[
				60.62800089518229
			],
			"min":[
				-0.002999999870856603
			],
			"type":"SCALAR"
		},
		{
			"bufferView":36,
			"componentType":5126,
			"count":42,
			"type":"VEC3"
		},
		{
			"bufferView":37,
			"componentType":5126,
			"count":42,
			"type":"VEC4"
		},
		{
			"bufferView":38,
			"componentType":5126,
			"count":42,
			"type":"VEC3"
		},
		{
			"bufferView":39,
			"componentType":5126,
			"count":28,
			"max":[
				60.62800089518229
			],
			"min":[
				-0.002999999870856603
			],
			"type":"SCALAR"
		},
		{
			"bufferView":40,
			"componentType":5126,
			"count":28,
			"type":"VEC3"
		},
		{
			"bufferView":41,
			"componentType":5126,
			"count":28,
			"type":"VEC4"
		},
		{
			"bufferView":42,
			"componentType":5126,
			"count":28,
			"type":"VEC3"
		},
		{
			"bufferView":43,
			"componentType":5126,
			"count":48,
			"max":[
				60.62800089518229
			],
			"min":[
				-0.002999999870856603
			],
			"type":"SCALAR"
		},
		{
			"bufferView":44,
			"componentType":5126,
			"count":48,
			"type":"VEC3"
		},
		{
			"bufferView":45,
			"componentType":5126,
			"count":48,
			"type":"VEC4"
		},
		{
			"bufferView":46,
			"componentType":5126,
			"count":48,
			"type":"VEC3"
		},
		{
			"bufferView":47,
			"componentType":5126,
			"count":46,
			"max":[
				60.62800089518229
			],
			"min":[
				-0.002999999870856603
			],
			"type":"SCALAR"
		},
		{
			"bufferView":48,
			"componentType":5126,
			"count":46,
			"type":"VEC3"
		},
		{
			"bufferView":49,
			"componentType":5126,
			"count":46,
			"type":"VEC4"
		},
		{
			"bufferView":50,
			"componentType":5126,
			"count":46,
			"type":"VEC3"
		},
		{
			"bufferView":51,
			"componentType":5126,
			"count":56,
			"max":[
				60.62800089518229
			],
			"min":[
				-0.002999999870856603
			],
			"type":"SCALAR"
		},
		{
			"bufferView":52,
			"componentType":5126,
			"count":56,
			"type":"VEC3"
		},
		{
			"bufferView":53,
			"componentType":5126,
			"count":56,
			"type":"VEC4"
		},
		{
			"bufferView":54,
			"componentType":5126,
			"count":56,
			"type":"VEC3"
		},
		{
			"bufferView":55,
			"componentType":5126,
			"count":56,
			"max":[
				60.62800089518229
			],
			"min":[
				-0.002999999870856603
			],
			"type":"SCALAR"
		},
		{
			"bufferView":56,
			"componentType":5126,
			"count":56,
			"type":"VEC3"
		},
		{
			"bufferView":57,
			"componentType":5126,
			"count":56,
			"type":"VEC4"
		},
		{
			"bufferView":58,
			"componentType":5126,
			"count":56,
			"type":"VEC3"
		},
		{
			"bufferView":59,
			"componentType":5126,
			"count":53,
			"max":[
				60.62800089518229
			],
			"min":[
				-0.002999999870856603
			],
			"type":"SCALAR"
		},
		{
			"bufferView":60,
			"componentType":5126,
			"count":53,
			"type":"VEC3"
		},
		{
			"bufferView":61,
			"componentType":5126,
			"count":53,
			"type":"VEC4"
		},
		{
			"bufferView":62,
			"componentType":5126,
			"count":53,
			"type":"VEC3"
		},
		{
			"bufferView":63,
			"componentType":5126,
			"count":68,
			"max":[
				60.62800089518229
			],
			"min":[
				-0.002999999870856603
			],
			"type":"SCALAR"
		},
		{
			"bufferView":64,
			"componentType":5126,
			"count":68,
			"type":"VEC3"
		},
		{
			"bufferView":65,
			"componentType":5126,
			"count":68,
			"type":"VEC4"
		},
		{
			"bufferView":66,
			"componentType":5126,
			"count":68,
			"type":"VEC3"
		}
	],
	"bufferViews":[
		{
			"buffer":0,
			"byteLength":47868,
			"byteOffset":0,
			"target":34962
		},
		{
			"buffer":0,
			"byteLength":47868,
			"byteOffset":47868,
			"target":34962
		},
		{
			"buffer":0,
			"byteLength":31912,
			"byteOffset":95736,
			"target":34962
		},
		{
			"buffer":0,
			"byteLength":15956,
			"byteOffset":127648,
			"target":34962
		},
		{
			"buffer":0,
			"byteLength":63824,
			"byteOffset":143604,
			"target":34962
		},
		{
			"buffer":0,
			"byteLength":12504,
			"byteOffset":207428,
			"target":34963
		},
		{
			"buffer":0,
			"byteLength":960,
			"byteOffset":219932
		},
		{
			"buffer":0,
			"byteLength":232,
			"byteOffset":220892
		},
		{
			"buffer":0,
			"byteLength":696,
			"byteOffset":221124
		},
		{
			"buffer":0,
			"byteLength":928,
			"byteOffset":221820
		},
		{
			"buffer":0,
			"byteLength":696,
			"byteOffset":222748
		},
		{
			"buffer":0,
			"byteLength":188,
			"byteOffset":223444
		},
		{
			"buffer":0,
			"byteLength":564,
			"byteOffset":223632
		},
		{
			"buffer":0,
			"byteLength":752,
			"byteOffset":224196
		},
		{
			"buffer":0,
			"byteLength":564,
			"byteOffset":224948
		},
		{
			"buffer":0,
			"byteLength":192,
			"byteOffset":225512
		},
		{
			"buffer":0,
			"byteLength":576,
			"byteOffset":225704
		},
		{
			"buffer":0,
			"byteLength":768,
			"byteOffset":226280
		},
		{
			"buffer":0,
			"byteLength":576,
			"byteOffset":227048
		},
		{
			"buffer":0,
			"byteLength":284,
			"byteOffset":227624
		},
		{
			"buffer":0,
			"byteLength":852,
			"byteOffset":227908
		},
		{
			"buffer":0,
			"byteLength":1136,
			"byteOffset":228760
		},
		{
			"buffer":0,
			"byteLength":852,
			"byteOffset":229896
		},
		{
			"buffer":0,
			"byteLength":340,
			"byteOffset":230748
		},
		{
			"buffer":0,
			"byteLength":1020,
			"byteOffset":231088
		},
		{
			"buffer":0,
			"byteLength":1360,
			"byteOffset":232108
		},
		{
			"buffer":0,
			"byteLength":1020,
			"byteOffset":233468
		},
		{
			"buffer":0,
			"byteLength":108,
			"byteOffset":234488
		},
		{
			"buffer":0,
			"byteLength":324,
			"byteOffset":234596
		},
		{
			"buffer":0,
			"byteLength":432,
			"byteOffset":234920
		},
		{
			"buffer":0,
			"byteLength":324,
			"byteOffset":235352
		},
		{
			"buffer":0,
			"byteLength":168,
			"byteOffset":235676
		},
		{
			"buffer":0,
			"byteLength":504,
			"byteOffset":235844
		},
		{
			"buffer":0,
			"byteLength":672,
			"byteOffset":236348
		},
		{
			"buffer":0,
			"byteLength":504,
			"byteOffset":237020
		},
		{
			"buffer":0,
			"byteLength":168,
			"byteOffset":237524
		},
		{
			"buffer":0,
			"byteLength":504,
			"byteOffset":237692
		},
		{
			"buffer":0,
			"byteLength":672,
			"byteOffset":238196
		},
		{
			"buffer":0,
			"byteLength":504,
			"byteOffset":238868
		},
		{
			"buffer":0,
			"byteLength":112,
			"byteOffset":239372
		},
		{
			"buffer":0,
			"byteLength":336,
			"byteOffset":239484
		},
		{
			"buffer":0,
			"byteLength":448,
			"byteOffset":239820
		},
		{
			"buffer":0,
			"byteLength":336,
			"byteOffset":240268
		},
		{
			"buffer":0,
			"byteLength":192,
			"byteOffset":240604
		},
		{
			"buffer":0,
			"byteLength":576,
			"byteOffset":240796
		},
		{
			"buffer":0,
			"byteLength":768,
			"byteOffset":241372
		},
		{
			"buffer":0,
			"byteLength":576,
			"byteOffset":242140
		},
		{
			"buffer":0,
			"byteLength":184,
			"byteOffset":242716
		},
		{
			"buffer":0,
			"byteLength":552,
			"byteOffset":242900
		},
		{
			"buffer":0,
			"byteLength":736,
			"byteOffset":243452
		},
		{
			"buffer":0,
			"byteLength":552,
			"byteOffset":244188
		},
		{
			"buffer":0,
			"byteLength":224,
			"byteOffset":244740
		},
		{
			"buffer":0,
			"byteLength":672,
			"byteOffset":244964
		},
		{
			"buffer":0,
			"byteLength":896,
			"byteOffset":245636
		},
		{
			"buffer":0,
			"byteLength":672,
			"byteOffset":246532
		},
		{
			"buffer":0,
			"byteLength":224,
			"byteOffset":247204
		},
		{
			"buffer":0,
			"byteLength":672,
			"byteOffset":247428
		},
		{
			"buffer":0,
			"byteLength":896,
			"byteOffset":248100
		},
		{
			"buffer":0,
			"byteLength":672,
			"byteOffset":248996
		},
		{
			"buffer":0,
			"byteLength":212,
			"byteOffset":249668
		},
		{
			"buffer":0,
			"byteLength":636,
			"byteOffset":249880
		},
		{
			"buffer":0,
			"byteLength":848,
			"byteOffset":250516
		},
		{
			"buffer":0,
			"byteLength":636,
			"byteOffset":251364
		},
		{
			"buffer":0,
			"byteLength":272,
			"byteOffset":252000
		},
		{
			"buffer":0,
			"byteLength":816,
			"byteOffset":252272
		},
		{
			"buffer":0,
			"byteLength":1088,
			"byteOffset":253088
		},
		{
			"buffer":0,
			"byteLength":816,
			"byteOffset":254176
		}
	],
	"samplers":[
		{
			"magFilter":9729,
			"minFilter":9987
		}
	],
	"buffers":[
		{
			"byteLength":254992,
			"uri":"SilsilataynV2%20textured.bin"
		}
	]
}
