{
	"asset":{
		"copyright":"wowgggearing",
		"generator":"Khronos glTF Blender I/O v4.3.47",
		"version":"2.0"
	},
	"scene":0,
	"scenes":[
		{
			"name":"Scene",
			"nodes":[
				16
			]
		}
	],
	"nodes":[
		{
			"name":"b_kepala",
			"translation":[
				0,
				1.5,
				0
			]
		},
		{
			"name":"b_tanganbawah L",
			"rotation":[
				0,
				2.1855694143368964e-08,
				0,
				1
			],
			"translation":[
				0,
				1.000000238418579,
				0
			]
		},
		{
			"children":[
				1
			],
			"name":"b_tanganatas L",
			"rotation":[
				-0.5,
				-0.5,
				-0.5,
				0.5
			],
			"scale":[
				1,
				0.9999999403953552,
				1
			],
			"translation":[
				0.5,
				1.2999999523162842,
				0
			]
		},
		{
			"name":"b_tanganbawah R",
			"rotation":[
				8.42936600520261e-08,
				-0.7071067690849304,
				-8.429366715745346e-08,
				0.7071067690849304
			],
			"translation":[
				1.5632406393656373e-14,
				1.000000238418579,
				1.1920920428565296e-07
			]
		},
		{
			"children":[
				3
			],
			"name":"b_tanganatas R",
			"rotation":[
				0.4999999403953552,
				-0.5000000596046448,
				0.4999999403953552,
				0.5000000596046448
			],
			"scale":[
				1,
				0.9999999403953552,
				1
			],
			"translation":[
				-0.5,
				1.2999999523162842,
				0
			]
		},
		{
			"name":"b_kakibawah L",
			"rotation":[
				3.137737181191369e-08,
				-4.30811404328324e-08,
				0.7071067690849304,
				0.7071067690849304
			],
			"translation":[
				8.158503610373753e-15,
				1.1000001430511475,
				-9.547111545771259e-08
			]
		},
		{
			"children":[
				5
			],
			"name":"b_kakiatas L",
			"rotation":[
				-1.896263839853106e-14,
				-2.881023242196079e-08,
				-4.4703494239684005e-08,
				1
			],
			"translation":[
				2.842170943040401e-14,
				0.9999998807907104,
				-8.653037752992532e-08
			]
		},
		{
			"children":[
				6
			],
			"name":"b_rok L",
			"rotation":[
				0.7071068286895752,
				-6.322029832972476e-08,
				-0.7071067094802856,
				5.024295358284445e-15
			],
			"scale":[
				1,
				0.9999999403953552,
				1
			],
			"translation":[
				0.30000001192092896,
				-0.13449311256408691,
				0
			]
		},
		{
			"name":"b_kakibawah R",
			"rotation":[
				3.137737181191369e-08,
				-4.30811404328324e-08,
				0.7071067690849304,
				0.7071067690849304
			],
			"translation":[
				2.236935747854281e-14,
				1.1000001430511475,
				-9.547111545771259e-08
			]
		},
		{
			"children":[
				8
			],
			"name":"b_kakiatas R",
			"rotation":[
				-1.896263839853106e-14,
				-2.881023242196079e-08,
				-4.4703494239684005e-08,
				1
			],
			"translation":[
				4.263256414560601e-14,
				0.9999998807907104,
				-8.653037752992532e-08
			]
		},
		{
			"children":[
				9
			],
			"name":"b_rok R",
			"rotation":[
				0.7071068286895752,
				-6.322029832972476e-08,
				-0.7071067094802856,
				5.024295358284445e-15
			],
			"scale":[
				1,
				0.9999999403953552,
				1
			],
			"translation":[
				-0.30000001192092896,
				-0.13449311256408691,
				0
			]
		},
		{
			"name":"b_topi",
			"translation":[
				0,
				-2.5,
				4
			]
		},
		{
			"children":[
				0,
				2,
				4,
				7,
				10,
				11
			],
			"name":"b_badan",
			"translation":[
				0,
				2.5,
				0
			]
		},
		{
			"name":"b_bladecover",
			"rotation":[
				-2.6692537957728746e-08,
				-2.6692537957728746e-08,
				-0.7071067690849304,
				0.7071067690849304
			],
			"translation":[
				3,
				0,
				-4
			]
		},
		{
			"name":"b_blade",
			"rotation":[
				-2.6692537957728746e-08,
				-2.6692537957728746e-08,
				-0.7071067690849304,
				0.7071067690849304
			],
			"translation":[
				3,
				0,
				-2
			]
		},
		{
			"mesh":0,
			"name":"chara0 v",
			"skin":0
		},
		{
			"children":[
				15,
				12,
				13,
				14
			],
			"name":"chara0 arm"
		}
	],
	"animations":[
		{
			"channels":[
				{
					"sampler":0,
					"target":{
						"node":12,
						"path":"translation"
					}
				},
				{
					"sampler":1,
					"target":{
						"node":12,
						"path":"rotation"
					}
				},
				{
					"sampler":2,
					"target":{
						"node":12,
						"path":"scale"
					}
				},
				{
					"sampler":3,
					"target":{
						"node":0,
						"path":"translation"
					}
				},
				{
					"sampler":4,
					"target":{
						"node":0,
						"path":"rotation"
					}
				},
				{
					"sampler":5,
					"target":{
						"node":0,
						"path":"scale"
					}
				},
				{
					"sampler":6,
					"target":{
						"node":2,
						"path":"translation"
					}
				},
				{
					"sampler":7,
					"target":{
						"node":2,
						"path":"rotation"
					}
				},
				{
					"sampler":8,
					"target":{
						"node":2,
						"path":"scale"
					}
				},
				{
					"sampler":9,
					"target":{
						"node":1,
						"path":"translation"
					}
				},
				{
					"sampler":10,
					"target":{
						"node":1,
						"path":"rotation"
					}
				},
				{
					"sampler":11,
					"target":{
						"node":1,
						"path":"scale"
					}
				},
				{
					"sampler":12,
					"target":{
						"node":4,
						"path":"translation"
					}
				},
				{
					"sampler":13,
					"target":{
						"node":4,
						"path":"rotation"
					}
				},
				{
					"sampler":14,
					"target":{
						"node":4,
						"path":"scale"
					}
				},
				{
					"sampler":15,
					"target":{
						"node":3,
						"path":"translation"
					}
				},
				{
					"sampler":16,
					"target":{
						"node":3,
						"path":"rotation"
					}
				},
				{
					"sampler":17,
					"target":{
						"node":3,
						"path":"scale"
					}
				},
				{
					"sampler":18,
					"target":{
						"node":7,
						"path":"translation"
					}
				},
				{
					"sampler":19,
					"target":{
						"node":7,
						"path":"rotation"
					}
				},
				{
					"sampler":20,
					"target":{
						"node":7,
						"path":"scale"
					}
				},
				{
					"sampler":21,
					"target":{
						"node":6,
						"path":"translation"
					}
				},
				{
					"sampler":22,
					"target":{
						"node":6,
						"path":"rotation"
					}
				},
				{
					"sampler":23,
					"target":{
						"node":6,
						"path":"scale"
					}
				},
				{
					"sampler":24,
					"target":{
						"node":5,
						"path":"translation"
					}
				},
				{
					"sampler":25,
					"target":{
						"node":5,
						"path":"rotation"
					}
				},
				{
					"sampler":26,
					"target":{
						"node":5,
						"path":"scale"
					}
				},
				{
					"sampler":27,
					"target":{
						"node":10,
						"path":"translation"
					}
				},
				{
					"sampler":28,
					"target":{
						"node":10,
						"path":"rotation"
					}
				},
				{
					"sampler":29,
					"target":{
						"node":10,
						"path":"scale"
					}
				},
				{
					"sampler":30,
					"target":{
						"node":9,
						"path":"translation"
					}
				},
				{
					"sampler":31,
					"target":{
						"node":9,
						"path":"rotation"
					}
				},
				{
					"sampler":32,
					"target":{
						"node":9,
						"path":"scale"
					}
				},
				{
					"sampler":33,
					"target":{
						"node":8,
						"path":"translation"
					}
				},
				{
					"sampler":34,
					"target":{
						"node":8,
						"path":"rotation"
					}
				},
				{
					"sampler":35,
					"target":{
						"node":8,
						"path":"scale"
					}
				},
				{
					"sampler":36,
					"target":{
						"node":11,
						"path":"translation"
					}
				},
				{
					"sampler":37,
					"target":{
						"node":11,
						"path":"rotation"
					}
				},
				{
					"sampler":38,
					"target":{
						"node":11,
						"path":"scale"
					}
				},
				{
					"sampler":39,
					"target":{
						"node":13,
						"path":"translation"
					}
				},
				{
					"sampler":40,
					"target":{
						"node":13,
						"path":"rotation"
					}
				},
				{
					"sampler":41,
					"target":{
						"node":13,
						"path":"scale"
					}
				},
				{
					"sampler":42,
					"target":{
						"node":14,
						"path":"translation"
					}
				},
				{
					"sampler":43,
					"target":{
						"node":14,
						"path":"rotation"
					}
				},
				{
					"sampler":44,
					"target":{
						"node":14,
						"path":"scale"
					}
				}
			],
			"name":"chara0 ani",
			"samplers":[
				{
					"input":7,
					"interpolation":"LINEAR",
					"output":8
				},
				{
					"input":7,
					"interpolation":"LINEAR",
					"output":9
				},
				{
					"input":7,
					"interpolation":"LINEAR",
					"output":10
				},
				{
					"input":11,
					"interpolation":"LINEAR",
					"output":12
				},
				{
					"input":11,
					"interpolation":"LINEAR",
					"output":13
				},
				{
					"input":11,
					"interpolation":"LINEAR",
					"output":14
				},
				{
					"input":15,
					"interpolation":"LINEAR",
					"output":16
				},
				{
					"input":15,
					"interpolation":"LINEAR",
					"output":17
				},
				{
					"input":15,
					"interpolation":"LINEAR",
					"output":18
				},
				{
					"input":19,
					"interpolation":"LINEAR",
					"output":20
				},
				{
					"input":19,
					"interpolation":"LINEAR",
					"output":21
				},
				{
					"input":19,
					"interpolation":"LINEAR",
					"output":22
				},
				{
					"input":23,
					"interpolation":"LINEAR",
					"output":24
				},
				{
					"input":23,
					"interpolation":"LINEAR",
					"output":25
				},
				{
					"input":23,
					"interpolation":"LINEAR",
					"output":26
				},
				{
					"input":27,
					"interpolation":"LINEAR",
					"output":28
				},
				{
					"input":27,
					"interpolation":"LINEAR",
					"output":29
				},
				{
					"input":27,
					"interpolation":"LINEAR",
					"output":30
				},
				{
					"input":31,
					"interpolation":"LINEAR",
					"output":32
				},
				{
					"input":31,
					"interpolation":"LINEAR",
					"output":33
				},
				{
					"input":31,
					"interpolation":"LINEAR",
					"output":34
				},
				{
					"input":35,
					"interpolation":"LINEAR",
					"output":36
				},
				{
					"input":35,
					"interpolation":"LINEAR",
					"output":37
				},
				{
					"input":35,
					"interpolation":"LINEAR",
					"output":38
				},
				{
					"input":39,
					"interpolation":"LINEAR",
					"output":40
				},
				{
					"input":39,
					"interpolation":"LINEAR",
					"output":41
				},
				{
					"input":39,
					"interpolation":"LINEAR",
					"output":42
				},
				{
					"input":43,
					"interpolation":"LINEAR",
					"output":44
				},
				{
					"input":43,
					"interpolation":"LINEAR",
					"output":45
				},
				{
					"input":43,
					"interpolation":"LINEAR",
					"output":46
				},
				{
					"input":47,
					"interpolation":"LINEAR",
					"output":48
				},
				{
					"input":47,
					"interpolation":"LINEAR",
					"output":49
				},
				{
					"input":47,
					"interpolation":"LINEAR",
					"output":50
				},
				{
					"input":51,
					"interpolation":"LINEAR",
					"output":52
				},
				{
					"input":51,
					"interpolation":"LINEAR",
					"output":53
				},
				{
					"input":51,
					"interpolation":"LINEAR",
					"output":54
				},
				{
					"input":55,
					"interpolation":"LINEAR",
					"output":56
				},
				{
					"input":55,
					"interpolation":"LINEAR",
					"output":57
				},
				{
					"input":55,
					"interpolation":"LINEAR",
					"output":58
				},
				{
					"input":59,
					"interpolation":"LINEAR",
					"output":60
				},
				{
					"input":59,
					"interpolation":"LINEAR",
					"output":61
				},
				{
					"input":59,
					"interpolation":"LINEAR",
					"output":62
				},
				{
					"input":63,
					"interpolation":"LINEAR",
					"output":64
				},
				{
					"input":63,
					"interpolation":"LINEAR",
					"output":65
				},
				{
					"input":63,
					"interpolation":"LINEAR",
					"output":66
				}
			]
		}
	],
	"meshes":[
		{
			"name":"chara0 v",
			"primitives":[
				{
					"attributes":{
						"POSITION":0,
						"NORMAL":1,
						"TEXCOORD_0":2,
						"JOINTS_0":3,
						"WEIGHTS_0":4
					},
					"indices":5
				}
			]
		}
	],
	"skins":[
		{
			"inverseBindMatrices":6,
			"joints":[
				12,
				0,
				2,
				1,
				4,
				3,
				7,
				6,
				5,
				10,
				9,
				8,
				11,
				13,
				14
			],
			"name":"chara0 arm"
		}
	],
	"accessors":[
		{
			"bufferView":0,
			"componentType":5126,
			"count":3898,
			"max":[
				6.651304721832275,
				4.947317600250244,
				5.079999923706055
			],
			"min":[
				-2.6726527214050293,
				-0.2963738441467285,
				-4.065573215484619
			],
			"type":"VEC3"
		},
		{
			"bufferView":1,
			"componentType":5126,
			"count":3898,
			"type":"VEC3"
		},
		{
			"bufferView":2,
			"componentType":5126,
			"count":3898,
			"type":"VEC2"
		},
		{
			"bufferView":3,
			"componentType":5121,
			"count":3898,
			"type":"VEC4"
		},
		{
			"bufferView":4,
			"componentType":5126,
			"count":3898,
			"type":"VEC4"
		},
		{
			"bufferView":5,
			"componentType":5123,
			"count":6252,
			"type":"SCALAR"
		},
		{
			"bufferView":6,
			"componentType":5126,
			"count":15,
			"type":"MAT4"
		},
		{
			"bufferView":7,
			"componentType":5126,
			"count":56,
			"max":[
				60.628
			],
			"min":[
				-0.003
			],
			"type":"SCALAR"
		},
		{
			"bufferView":8,
			"componentType":5126,
			"count":56,
			"type":"VEC3"
		},
		{
			"bufferView":9,
			"componentType":5126,
			"count":56,
			"type":"VEC4"
		},
		{
			"bufferView":10,
			"componentType":5126,
			"count":56,
			"type":"VEC3"
		},
		{
			"bufferView":11,
			"componentType":5126,
			"count":58,
			"max":[
				60.628
			],
			"min":[
				-0.003
			],
			"type":"SCALAR"
		},
		{
			"bufferView":12,
			"componentType":5126,
			"count":58,
			"type":"VEC3"
		},
		{
			"bufferView":13,
			"componentType":5126,
			"count":58,
			"type":"VEC4"
		},
		{
			"bufferView":14,
			"componentType":5126,
			"count":58,
			"type":"VEC3"
		},
		{
			"bufferView":15,
			"componentType":5126,
			"count":48,
			"max":[
				60.628
			],
			"min":[
				-0.003
			],
			"type":"SCALAR"
		},
		{
			"bufferView":16,
			"componentType":5126,
			"count":48,
			"type":"VEC3"
		},
		{
			"bufferView":17,
			"componentType":5126,
			"count":48,
			"type":"VEC4"
		},
		{
			"bufferView":18,
			"componentType":5126,
			"count":48,
			"type":"VEC3"
		},
		{
			"bufferView":19,
			"componentType":5126,
			"count":47,
			"max":[
				60.628
			],
			"min":[
				-0.003
			],
			"type":"SCALAR"
		},
		{
			"bufferView":20,
			"componentType":5126,
			"count":47,
			"type":"VEC3"
		},
		{
			"bufferView":21,
			"componentType":5126,
			"count":47,
			"type":"VEC4"
		},
		{
			"bufferView":22,
			"componentType":5126,
			"count":47,
			"type":"VEC3"
		},
		{
			"bufferView":23,
			"componentType":5126,
			"count":85,
			"max":[
				60.628
			],
			"min":[
				-0.003
			],
			"type":"SCALAR"
		},
		{
			"bufferView":24,
			"componentType":5126,
			"count":85,
			"type":"VEC3"
		},
		{
			"bufferView":25,
			"componentType":5126,
			"count":85,
			"type":"VEC4"
		},
		{
			"bufferView":26,
			"componentType":5126,
			"count":85,
			"type":"VEC3"
		},
		{
			"bufferView":27,
			"componentType":5126,
			"count":71,
			"max":[
				60.628
			],
			"min":[
				-0.003
			],
			"type":"SCALAR"
		},
		{
			"bufferView":28,
			"componentType":5126,
			"count":71,
			"type":"VEC3"
		},
		{
			"bufferView":29,
			"componentType":5126,
			"count":71,
			"type":"VEC4"
		},
		{
			"bufferView":30,
			"componentType":5126,
			"count":71,
			"type":"VEC3"
		},
		{
			"bufferView":31,
			"componentType":5126,
			"count":42,
			"max":[
				60.628
			],
			"min":[
				-0.003
			],
			"type":"SCALAR"
		},
		{
			"bufferView":32,
			"componentType":5126,
			"count":42,
			"type":"VEC3"
		},
		{
			"bufferView":33,
			"componentType":5126,
			"count":42,
			"type":"VEC4"
		},
		{
			"bufferView":34,
			"componentType":5126,
			"count":42,
			"type":"VEC3"
		},
		{
			"bufferView":35,
			"componentType":5126,
			"count":42,
			"max":[
				60.628
			],
			"min":[
				-0.003
			],
			"type":"SCALAR"
		},
		{
			"bufferView":36,
			"componentType":5126,
			"count":42,
			"type":"VEC3"
		},
		{
			"bufferView":37,
			"componentType":5126,
			"count":42,
			"type":"VEC4"
		},
		{
			"bufferView":38,
			"componentType":5126,
			"count":42,
			"type":"VEC3"
		},
		{
			"bufferView":39,
			"componentType":5126,
			"count":27,
			"max":[
				60.628
			],
			"min":[
				-0.003
			],
			"type":"SCALAR"
		},
		{
			"bufferView":40,
			"componentType":5126,
			"count":27,
			"type":"VEC3"
		},
		{
			"bufferView":41,
			"componentType":5126,
			"count":27,
			"type":"VEC4"
		},
		{
			"bufferView":42,
			"componentType":5126,
			"count":27,
			"type":"VEC3"
		},
		{
			"bufferView":43,
			"componentType":5126,
			"count":46,
			"max":[
				60.628
			],
			"min":[
				-0.003
			],
			"type":"SCALAR"
		},
		{
			"bufferView":44,
			"componentType":5126,
			"count":46,
			"type":"VEC3"
		},
		{
			"bufferView":45,
			"componentType":5126,
			"count":46,
			"type":"VEC4"
		},
		{
			"bufferView":46,
			"componentType":5126,
			"count":46,
			"type":"VEC3"
		},
		{
			"bufferView":47,
			"componentType":5126,
			"count":48,
			"max":[
				60.628
			],
			"min":[
				-0.003
			],
			"type":"SCALAR"
		},
		{
			"bufferView":48,
			"componentType":5126,
			"count":48,
			"type":"VEC3"
		},
		{
			"bufferView":49,
			"componentType":5126,
			"count":48,
			"type":"VEC4"
		},
		{
			"bufferView":50,
			"componentType":5126,
			"count":48,
			"type":"VEC3"
		},
		{
			"bufferView":51,
			"componentType":5126,
			"count":28,
			"max":[
				60.628
			],
			"min":[
				-0.003
			],
			"type":"SCALAR"
		},
		{
			"bufferView":52,
			"componentType":5126,
			"count":28,
			"type":"VEC3"
		},
		{
			"bufferView":53,
			"componentType":5126,
			"count":28,
			"type":"VEC4"
		},
		{
			"bufferView":54,
			"componentType":5126,
			"count":28,
			"type":"VEC3"
		},
		{
			"bufferView":55,
			"componentType":5126,
			"count":56,
			"max":[
				60.628
			],
			"min":[
				-0.003
			],
			"type":"SCALAR"
		},
		{
			"bufferView":56,
			"componentType":5126,
			"count":56,
			"type":"VEC3"
		},
		{
			"bufferView":57,
			"componentType":5126,
			"count":56,
			"type":"VEC4"
		},
		{
			"bufferView":58,
			"componentType":5126,
			"count":56,
			"type":"VEC3"
		},
		{
			"bufferView":59,
			"componentType":5126,
			"count":53,
			"max":[
				60.628
			],
			"min":[
				-0.003
			],
			"type":"SCALAR"
		},
		{
			"bufferView":60,
			"componentType":5126,
			"count":53,
			"type":"VEC3"
		},
		{
			"bufferView":61,
			"componentType":5126,
			"count":53,
			"type":"VEC4"
		},
		{
			"bufferView":62,
			"componentType":5126,
			"count":53,
			"type":"VEC3"
		},
		{
			"bufferView":63,
			"componentType":5126,
			"count":68,
			"max":[
				60.628
			],
			"min":[
				-0.003
			],
			"type":"SCALAR"
		},
		{
			"bufferView":64,
			"componentType":5126,
			"count":68,
			"type":"VEC3"
		},
		{
			"bufferView":65,
			"componentType":5126,
			"count":68,
			"type":"VEC4"
		},
		{
			"bufferView":66,
			"componentType":5126,
			"count":68,
			"type":"VEC3"
		}
	],
	"bufferViews":[
		{
			"buffer":0,
			"byteLength":46776,
			"byteOffset":0,
			"target":34962
		},
		{
			"buffer":0,
			"byteLength":46776,
			"byteOffset":46776,
			"target":34962
		},
		{
			"buffer":0,
			"byteLength":31184,
			"byteOffset":93552,
			"target":34962
		},
		{
			"buffer":0,
			"byteLength":15592,
			"byteOffset":124736,
			"target":34962
		},
		{
			"buffer":0,
			"byteLength":62368,
			"byteOffset":140328,
			"target":34962
		},
		{
			"buffer":0,
			"byteLength":12504,
			"byteOffset":202696,
			"target":34963
		},
		{
			"buffer":0,
			"byteLength":960,
			"byteOffset":215200
		},
		{
			"buffer":0,
			"byteLength":224,
			"byteOffset":216160
		},
		{
			"buffer":0,
			"byteLength":672,
			"byteOffset":216384
		},
		{
			"buffer":0,
			"byteLength":896,
			"byteOffset":217056
		},
		{
			"buffer":0,
			"byteLength":672,
			"byteOffset":217952
		},
		{
			"buffer":0,
			"byteLength":232,
			"byteOffset":218624
		},
		{
			"buffer":0,
			"byteLength":696,
			"byteOffset":218856
		},
		{
			"buffer":0,
			"byteLength":928,
			"byteOffset":219552
		},
		{
			"buffer":0,
			"byteLength":696,
			"byteOffset":220480
		},
		{
			"buffer":0,
			"byteLength":192,
			"byteOffset":221176
		},
		{
			"buffer":0,
			"byteLength":576,
			"byteOffset":221368
		},
		{
			"buffer":0,
			"byteLength":768,
			"byteOffset":221944
		},
		{
			"buffer":0,
			"byteLength":576,
			"byteOffset":222712
		},
		{
			"buffer":0,
			"byteLength":188,
			"byteOffset":223288
		},
		{
			"buffer":0,
			"byteLength":564,
			"byteOffset":223476
		},
		{
			"buffer":0,
			"byteLength":752,
			"byteOffset":224040
		},
		{
			"buffer":0,
			"byteLength":564,
			"byteOffset":224792
		},
		{
			"buffer":0,
			"byteLength":340,
			"byteOffset":225356
		},
		{
			"buffer":0,
			"byteLength":1020,
			"byteOffset":225696
		},
		{
			"buffer":0,
			"byteLength":1360,
			"byteOffset":226716
		},
		{
			"buffer":0,
			"byteLength":1020,
			"byteOffset":228076
		},
		{
			"buffer":0,
			"byteLength":284,
			"byteOffset":229096
		},
		{
			"buffer":0,
			"byteLength":852,
			"byteOffset":229380
		},
		{
			"buffer":0,
			"byteLength":1136,
			"byteOffset":230232
		},
		{
			"buffer":0,
			"byteLength":852,
			"byteOffset":231368
		},
		{
			"buffer":0,
			"byteLength":168,
			"byteOffset":232220
		},
		{
			"buffer":0,
			"byteLength":504,
			"byteOffset":232388
		},
		{
			"buffer":0,
			"byteLength":672,
			"byteOffset":232892
		},
		{
			"buffer":0,
			"byteLength":504,
			"byteOffset":233564
		},
		{
			"buffer":0,
			"byteLength":168,
			"byteOffset":234068
		},
		{
			"buffer":0,
			"byteLength":504,
			"byteOffset":234236
		},
		{
			"buffer":0,
			"byteLength":672,
			"byteOffset":234740
		},
		{
			"buffer":0,
			"byteLength":504,
			"byteOffset":235412
		},
		{
			"buffer":0,
			"byteLength":108,
			"byteOffset":235916
		},
		{
			"buffer":0,
			"byteLength":324,
			"byteOffset":236024
		},
		{
			"buffer":0,
			"byteLength":432,
			"byteOffset":236348
		},
		{
			"buffer":0,
			"byteLength":324,
			"byteOffset":236780
		},
		{
			"buffer":0,
			"byteLength":184,
			"byteOffset":237104
		},
		{
			"buffer":0,
			"byteLength":552,
			"byteOffset":237288
		},
		{
			"buffer":0,
			"byteLength":736,
			"byteOffset":237840
		},
		{
			"buffer":0,
			"byteLength":552,
			"byteOffset":238576
		},
		{
			"buffer":0,
			"byteLength":192,
			"byteOffset":239128
		},
		{
			"buffer":0,
			"byteLength":576,
			"byteOffset":239320
		},
		{
			"buffer":0,
			"byteLength":768,
			"byteOffset":239896
		},
		{
			"buffer":0,
			"byteLength":576,
			"byteOffset":240664
		},
		{
			"buffer":0,
			"byteLength":112,
			"byteOffset":241240
		},
		{
			"buffer":0,
			"byteLength":336,
			"byteOffset":241352
		},
		{
			"buffer":0,
			"byteLength":448,
			"byteOffset":241688
		},
		{
			"buffer":0,
			"byteLength":336,
			"byteOffset":242136
		},
		{
			"buffer":0,
			"byteLength":224,
			"byteOffset":242472
		},
		{
			"buffer":0,
			"byteLength":672,
			"byteOffset":242696
		},
		{
			"buffer":0,
			"byteLength":896,
			"byteOffset":243368
		},
		{
			"buffer":0,
			"byteLength":672,
			"byteOffset":244264
		},
		{
			"buffer":0,
			"byteLength":212,
			"byteOffset":244936
		},
		{
			"buffer":0,
			"byteLength":636,
			"byteOffset":245148
		},
		{
			"buffer":0,
			"byteLength":848,
			"byteOffset":245784
		},
		{
			"buffer":0,
			"byteLength":636,
			"byteOffset":246632
		},
		{
			"buffer":0,
			"byteLength":272,
			"byteOffset":247268
		},
		{
			"buffer":0,
			"byteLength":816,
			"byteOffset":247540
		},
		{
			"buffer":0,
			"byteLength":1088,
			"byteOffset":248356
		},
		{
			"buffer":0,
			"byteLength":816,
			"byteOffset":249444
		}
	],
	"buffers":[
		{
			"byteLength":250260,
			"uri":"SilsilataynV2.bin"
		}
	]
}
